<?xml version="1.0" encoding="utf-8"?>
<!-- Generator: Adobe Illustrator 26.0.1, SVG Export Plug-In . SVG Version: 6.00 Build 0)  -->
<svg version="1.1" id="Layer_1" focusable="false" xmlns="http://www.w3.org/2000/svg" xmlns:xlink="http://www.w3.org/1999/xlink"
	 x="0px" y="0px" viewBox="0 0 448 512" enable-background="new 0 0 448 512" xml:space="preserve">
<path fill="none" d="M0,32v448h448V32H0z"/>
<g id="XMLID_00000051358680908117334840000015408412355035307169_">
	<g>
		<path fill="#33FF99" d="M400.8,269L368,290c-7.2-12.9-15-18-27.1-18c-12.3,0-20.1,7.8-20.1,18c0,12.6,7.8,17.7,25.9,25.6l10.5,4.5
			c35.8,15.3,55.9,31,55.9,66.2c0,37.8-29.8,58.6-69.7,58.6c-39.1,0-64.4-18.6-76.7-43l34.3-19.8c9,14.7,20.8,25.6,41.5,25.6
			c17.4,0,28.6-8.7,28.6-20.8c0-14.4-11.4-19.5-30.7-28l-10.5-4.5c-30.4-12.9-50.5-29.2-50.5-63.5c0-31.6,24.1-55.6,61.6-55.6
			C367.8,235.3,387,244.6,400.8,269z"/>
	</g>
	<g>
	</g>
</g>
<g id="XMLID_00000100372250521502944210000015606748397637228173_">
	<g>
		<path fill="#33FF99" d="M243.8,237.7v143.7c0,43.6-25.6,63.5-62.9,63.5c-33.7,0-53.2-17.4-63.2-38.5l34.3-20.7
			c6.6,11.7,12.6,21.6,27.1,21.6c13.8,0,22.6-5.4,22.6-26.5V237.7H243.8z"/>
	</g>
	<g>
	</g>
</g>
</svg>
