<?xml version="1.0" encoding="utf-8"?>
<!-- Generator: Adobe Illustrator 26.0.1, SVG Export Plug-In . SVG Version: 6.00 Build 0)  -->
<svg version="1.1" id="Layer_1" xmlns="http://www.w3.org/2000/svg" xmlns:xlink="http://www.w3.org/1999/xlink" x="0px" y="0px"
	 viewBox="0 0 512 512" style="enable-background:new 0 0 512 512;" xml:space="preserve">
<style type="text/css">
	.st0{fill:#4BFFA5;}
</style>
<path class="st0" d="M357.3,402c-16.9-1.6-38.7-4.8-59.7-27.8v47.2c38.6,25.1,105,20.5,128.1-9.7c13.8-17.9,19.4-41.9,9.2-69.1
	c-24-48.3-81-51.3-97.6-81.8c-18.3-49.4,57.2-58.3,93.5-25.1v-44.4c-15.5-10-40-11.1-57.3-10.1c-45.5,2.5-76.1,28.9-75.6,68.3
	c-2,55,60.8,69.1,92.4,94.6C411.8,362.3,410.2,406.4,357.3,402z M177.6,433.5V220h-68.8v-35.3h175.7V220h-68.9v213.5H177.6z M480,32
	v448H32V32H480z M512,0H0v512h512V0z"/>
</svg>
